<?xml version="1.0" encoding="utf-8"?>
<svg viewBox="0 0 300 345" width="300" height="345" xmlns="http://www.w3.org/2000/svg">
  <defs>
    <linearGradient gradientUnits="userSpaceOnUse" x1="150" y1="259.14" x2="150" y2="345" id="gradient-0">
      <stop offset="0" style="stop-color: rgb(255, 182, 248);"/>
      <stop offset="1" style="stop-color: rgb(190, 106, 182);"/>
    </linearGradient>
  </defs>
  <path class="cls-13" d="M 264.025 10.03 C 251.237 6.904 237.843 7.462 225.349 11.644 C 199.357 20.102 178.984 40.792 170.655 67.19 C 166.534 79.886 165.993 93.503 169.092 106.496 C 172.071 94.506 176.442 82.92 182.114 71.978 C 187.556 61.667 194.442 52.211 202.56 43.913 C 210.704 35.648 220.007 28.649 230.167 23.15 C 240.903 17.431 252.269 13.03 264.025 10.03 Z" style="fill: rgb(255, 161, 246);" transform="matrix(-0.996195, 0.087156, -0.087156, -0.996195, 435.304291, 95.526161)"/>
  <path id="path839" d="M263.62,345H36.38A36.38,36.38,0,0,1,0,308.62V259.14H300v49.48A36.38,36.38,0,0,1,263.62,345Z" style="fill: url(#gradient-0);"/>
  <path class="cls-13" d="M 298.311 16.069 C 285.523 12.943 272.129 13.501 259.635 17.683 C 233.643 26.141 213.27 46.831 204.941 73.229 C 200.82 85.925 200.279 99.543 203.378 112.536 C 206.357 100.546 210.728 88.959 216.4 78.017 C 221.842 67.706 228.728 58.25 236.846 49.952 C 244.99 41.687 254.293 34.688 264.453 29.189 C 275.189 23.47 286.555 19.069 298.311 16.069 Z" style="fill: rgb(255, 161, 246);" transform="matrix(-0.999391, -0.034899, 0.034899, -0.999391, 497.344055, 135.292053)"/>
  <path class="cls-13" d="M 132.891 104.523 C 120.103 107.649 106.709 107.091 94.215 102.909 C 68.223 94.451 47.85 73.761 39.521 47.363 C 35.4 34.667 34.859 21.05 37.958 8.057 C 40.937 20.047 45.308 31.633 50.98 42.575 C 56.422 52.886 63.308 62.342 71.426 70.64 C 79.57 78.905 88.873 85.904 99.033 91.403 C 109.769 97.122 121.135 101.523 132.891 104.523 Z" style="fill: rgb(255, 161, 246);" transform="matrix(0.996195, 0.087156, -0.087156, 0.996195, 5.314199, -7.140826)"/>
  <path class="cls-13" d="M 98.605 110.563 C 85.817 113.689 72.423 113.131 59.929 108.949 C 33.937 100.491 13.564 79.801 5.235 53.403 C 1.114 40.707 0.573 27.089 3.672 14.096 C 6.651 26.086 11.022 37.673 16.694 48.615 C 22.136 58.926 29.022 68.382 37.14 76.68 C 45.284 84.945 54.587 91.944 64.747 97.443 C 75.483 103.162 86.849 107.563 98.605 110.563 Z" style="fill: rgb(255, 161, 246);" transform="matrix(0.999391, -0.034899, 0.034899, 0.999391, -2.179484, 1.788648)"/>
  <rect style="fill-opacity: 1; fill: rgb(255, 182, 248);" id="rect841" y="45" width="300" height="253.39" rx="36.38"/>
  <ellipse style="fill: rgb(255, 255, 255);" cx="-63.698" cy="145.206" rx="36.45" ry="36.45" transform="matrix(-1, 0, 0, 1, 0, 0)"/>
  <path d="M 95.804 152.502 C 87.742 146.303 75.994 151.156 74.656 161.236 C 74.237 164.397 74.975 167.602 76.734 170.262 C 59.221 172.865 45.457 155.534 51.959 139.066 C 58.46 122.597 80.351 119.343 91.363 133.208 C 95.677 138.64 97.309 145.73 95.804 152.502 Z M 63.584 132.612 C 59.381 132.612 56.754 137.162 58.855 140.802 C 60.957 144.442 66.211 144.442 68.312 140.802 C 68.793 139.969 69.046 139.023 69.044 138.062 C 69.044 135.048 66.598 132.606 63.584 132.612 Z" fill="#414042" transform="matrix(-1, 0, 0, -1, 146.670532, 295.029785)"/>
  <path class="cls-3" d="M 218.672 214.877 C 218.672 231.208 161.446 241.415 115.664 233.249 C 94.418 229.46 81.328 222.456 81.328 214.877" style="fill: none; stroke: rgb(21, 20, 26); stroke-linecap: round; stroke-miterlimit: 10; stroke-width: 2px;"/>
  <path class="cls-8" d="M 94.293 281.384 C 94.293 281.384 94.413 272.124 87.733 272.124 C 81.053 272.124 82.733 285.834 82.733 285.834" style="fill: rgb(251, 226, 205);" transform="matrix(-0.788011, 0.615662, -0.615662, -0.788011, 329.8508, 444.381195)"/>
  <path class="cls-8" d="M 59.606 299.311 C 59.606 299.311 59.486 290.051 66.156 290.051 C 72.826 290.051 71.156 303.761 71.156 303.761" style="fill: rgb(251, 226, 205);" transform="matrix(-0.788011, 0.615662, -0.615662, -0.788011, 299.861664, 490.561279)"/>
  <path class="cls-8" d="M 82.121 293.129 C 82.121 293.129 84.02 280.417 77.26 280.417 C 70.5 280.417 72.088 293.179 72.088 293.179" style="fill: rgb(251, 226, 205);" transform="matrix(-0.788011, 0.615662, -0.615662, -0.788011, 315.266724, 466.818909)"/>
  <path class="cls-4" d="M 90.859 251.307 C 90.099 255.817 89.459 260.087 88.569 264.227 C 87.845 268.271 86.495 272.178 84.569 275.807 C 82.656 279.199 79.778 281.945 76.299 283.697 C 74.547 284.569 72.683 285.195 70.759 285.557 C 69.769 285.768 68.767 285.922 67.759 286.017 C 66.759 286.127 65.759 286.117 64.759 286.177 C 60.755 286.302 56.773 285.527 53.109 283.907 C 49.539 282.183 46.567 279.427 44.579 275.997 C 42.574 272.347 41.201 268.385 40.519 264.277 C 39.689 260.097 39.149 255.797 38.639 251.277 C 35.668 260.142 36.389 269.829 40.639 278.157 C 42.883 282.55 46.413 286.153 50.759 288.487 C 55.106 290.655 59.902 291.768 64.759 291.737 C 69.635 291.86 74.47 290.815 78.859 288.687 C 83.293 286.383 86.912 282.774 89.229 278.347 C 93.666 269.996 94.261 260.13 90.859 251.307 Z" style="fill: rgb(220, 135, 212);" transform="matrix(0.788011, -0.615662, 0.615662, 0.788011, -153.393066, 97.538048)"/>
  <ellipse style="fill: rgb(255, 255, 255);" cx="236.302" cy="145.185" rx="36.45" ry="36.45"/>
  <path d="M 249.133 142.507 C 241.071 148.706 229.323 143.853 227.985 133.773 C 227.566 130.612 228.304 127.407 230.063 124.747 C 212.55 122.144 198.786 139.475 205.288 155.943 C 211.789 172.412 233.68 175.666 244.692 161.801 C 249.006 156.369 250.638 149.279 249.133 142.507 Z M 216.913 162.397 C 212.71 162.397 210.083 157.847 212.184 154.207 C 214.286 150.567 219.54 150.567 221.641 154.207 C 222.122 155.04 222.375 155.986 222.373 156.947 C 222.373 159.961 219.927 162.403 216.913 162.397 Z" fill="#414042"/>
  <path class="cls-8" d="M 217.455 276.553 C 217.455 276.553 217.575 285.813 210.895 285.813 C 204.215 285.813 205.895 272.103 205.895 272.103" style="fill: rgb(251, 226, 205);" transform="matrix(0.788011, 0.615662, -0.615662, 0.788011, 216.596695, -71.126167)"/>
  <path class="cls-8" d="M 228.658 294.48 C 228.658 294.48 228.538 303.74 235.208 303.74 C 241.878 303.74 240.208 290.03 240.208 290.03" style="fill: rgb(251, 226, 205);" transform="matrix(0.788011, 0.615662, -0.615662, 0.788011, 232.497742, -81.452133)"/>
  <path class="cls-8" d="M 227.071 281.963 C 227.071 281.963 228.97 294.675 222.21 294.675 C 215.45 294.675 217.038 281.913 217.038 281.913" style="fill: rgb(251, 226, 205);" transform="matrix(0.788011, 0.615662, -0.615662, 0.788011, 224.573639, -75.620872)"/>
  <path class="cls-4" d="M 260.981 291.696 C 260.221 287.186 259.581 282.916 258.691 278.776 C 257.967 274.732 256.617 270.825 254.691 267.196 C 252.778 263.804 249.9 261.058 246.421 259.306 C 244.669 258.434 242.805 257.808 240.881 257.446 C 239.891 257.235 238.889 257.081 237.881 256.986 C 236.881 256.876 235.881 256.886 234.881 256.826 C 230.877 256.701 226.895 257.476 223.231 259.096 C 219.661 260.82 216.689 263.576 214.701 267.006 C 212.696 270.656 211.323 274.618 210.641 278.726 C 209.811 282.906 209.271 287.206 208.761 291.726 C 205.79 282.861 206.511 273.174 210.761 264.846 C 213.005 260.453 216.535 256.85 220.881 254.516 C 225.228 252.348 230.024 251.235 234.881 251.266 C 239.757 251.143 244.592 252.188 248.981 254.316 C 253.415 256.62 257.034 260.229 259.351 264.656 C 263.788 273.007 264.383 282.873 260.981 291.696 Z" style="fill: rgb(220, 135, 212);" transform="matrix(-0.788011, -0.615662, 0.615662, -0.788011, 253.144745, 630.147095)"/>
</svg>
