<?xml version="1.0" encoding="utf-8"?>
<svg viewBox="0 0 300 345" width="300" height="345" xmlns="http://www.w3.org/2000/svg" xmlns:bx="https://boxy-svg.com">
  <defs>
    <linearGradient gradientUnits="userSpaceOnUse" x1="150" y1="259.14" x2="150" y2="345" id="gradient-0">
      <stop offset="0" style="stop-color: rgba(207, 166, 53, 1)"/>
      <stop offset="1" style="stop-color: rgba(128, 102, 30, 1)"/>
    </linearGradient>
    <linearGradient gradientUnits="userSpaceOnUse" x1="147.028" y1="59.809" x2="147.028" y2="101.889" id="gradient-8">
      <stop offset="0" style="stop-color: rgba(147, 157, 78, 1)"/>
      <stop offset="1" style="stop-color: rgba(83, 89, 44, 1)"/>
    </linearGradient>
  </defs>
  <path id="path839" d="M263.62,345H36.38A36.38,36.38,0,0,1,0,308.62V259.14H300v49.48A36.38,36.38,0,0,1,263.62,345Z" style="fill: url(#gradient-0);"/>
  <rect style="fill-opacity: 1; fill: rgb(207, 167, 53);" id="rect841" y="45" width="300" height="253.39" rx="36.38"/>
  <path d="M -15.282 -218.444 Q -12.616 -229.627 -9.951 -218.444 L -8.412 -211.989 Q -5.747 -200.806 -11.078 -200.806 L -14.155 -200.806 Q -19.486 -200.806 -16.821 -211.989 Z" style="fill: rgb(244, 214, 154); stroke-width: 0px;" transform="matrix(-0.87462, -0.48481, 0.48481, -0.87462, 104.565483, 20.516775)" bx:shape="triangle -19.486 -229.627 13.739 28.821 0.5 0.388 1@4c0e1776"/>
  <path d="M -15.282 -218.444 Q -12.616 -229.627 -9.951 -218.444 L -8.412 -211.989 Q -5.747 -200.806 -11.078 -200.806 L -14.155 -200.806 Q -19.486 -200.806 -16.821 -211.989 Z" style="fill: rgb(244, 214, 154); stroke-width: 0px;" transform="matrix(-0.866025, -0.5, 0.5, -0.866025, 144.303757, 37.964691)" bx:shape="triangle -19.486 -229.627 13.739 28.821 0.5 0.388 1@4c0e1776"/>
  <path d="M -15.282 -218.444 Q -12.616 -229.627 -9.951 -218.444 L -8.412 -211.989 Q -5.747 -200.806 -11.078 -200.806 L -14.155 -200.806 Q -19.486 -200.806 -16.821 -211.989 Z" style="fill: rgb(244, 214, 154); stroke-width: 0px;" transform="matrix(-0.939693, -0.34202, 0.34202, -0.939693, 148.825424, 29.121454)" bx:shape="triangle -19.486 -229.627 13.739 28.821 0.5 0.388 1@4c0e1776"/>
  <path d="M -15.282 -218.444 Q -12.616 -229.627 -9.951 -218.444 L -8.412 -211.989 Q -5.747 -200.806 -11.078 -200.806 L -14.155 -200.806 Q -19.486 -200.806 -16.821 -211.989 Z" style="fill: rgb(244, 214, 154); stroke-width: 0px;" transform="matrix(-0.978148, -0.207911, 0.207911, -0.978148, 156.016937, 26.351)" bx:shape="triangle -19.486 -229.627 13.739 28.821 0.5 0.388 1@4c0e1776"/>
  <path d="M -15.282 -218.444 Q -12.616 -229.627 -9.951 -218.444 L -8.412 -211.989 Q -5.747 -200.806 -11.078 -200.806 L -14.155 -200.806 Q -19.486 -200.806 -16.821 -211.989 Z" style="fill: rgb(244, 214, 154); stroke-width: 0px;" transform="matrix(-0.866025, -0.5, 0.5, -0.866025, 115.168884, 54.400433)" bx:shape="triangle -19.486 -229.627 13.739 28.821 0.5 0.388 1@4c0e1776"/>
  <path d="M -15.282 -218.444 Q -12.616 -229.627 -9.951 -218.444 L -8.412 -211.989 Q -5.747 -200.806 -11.078 -200.806 L -14.155 -200.806 Q -19.486 -200.806 -16.821 -211.989 Z" style="fill: rgb(244, 214, 154); stroke-width: 0px;" transform="matrix(-0.866025, -0.5, 0.5, -0.866025, 140.415726, 1.967278)" bx:shape="triangle -19.486 -229.627 13.739 28.821 0.5 0.388 1@4c0e1776"/>
  <path d="M -15.282 -218.444 Q -12.616 -229.627 -9.951 -218.444 L -8.412 -211.989 Q -5.747 -200.806 -11.078 -200.806 L -14.155 -200.806 Q -19.486 -200.806 -16.821 -211.989 Z" style="fill: rgb(244, 214, 154); stroke-width: 0px;" transform="matrix(-0.939693, -0.34202, 0.34202, -0.939693, 139.941666, -6.957112)" bx:shape="triangle -19.486 -229.627 13.739 28.821 0.5 0.388 1@4c0e1776"/>
  <path d="M -15.282 -218.444 Q -12.616 -229.627 -9.951 -218.444 L -8.412 -211.989 Q -5.747 -200.806 -11.078 -200.806 L -14.155 -200.806 Q -19.486 -200.806 -16.821 -211.989 Z" style="fill: rgb(244, 214, 154); stroke-width: 0px;" transform="matrix(-0.939693, -0.34202, 0.34202, -0.939693, 123.75457, 52.910984)" bx:shape="triangle -19.486 -229.627 13.739 28.821 0.5 0.388 1@4c0e1776"/>
  <path d="M -15.282 -218.444 Q -12.616 -229.627 -9.951 -218.444 L -8.412 -211.989 Q -5.747 -200.806 -11.078 -200.806 L -14.155 -200.806 Q -19.486 -200.806 -16.821 -211.989 Z" style="fill: rgb(244, 214, 154); stroke-width: 0px;" transform="matrix(-0.978148, -0.207911, 0.207911, -0.978148, 144.507263, -5.573521)" bx:shape="triangle -19.486 -229.627 13.739 28.821 0.5 0.388 1@4c0e1776"/>
  <path d="M -15.282 -218.444 Q -12.616 -229.627 -9.951 -218.444 L -8.412 -211.989 Q -5.747 -200.806 -11.078 -200.806 L -14.155 -200.806 Q -19.486 -200.806 -16.821 -211.989 Z" style="fill: rgb(244, 214, 154); stroke-width: 0px;" transform="matrix(-0.978148, -0.207911, 0.207911, -0.978148, 136.698822, 50.808533)" bx:shape="triangle -19.486 -229.627 13.739 28.821 0.5 0.388 1@4c0e1776"/>
  <path d="M -15.282 -218.444 Q -12.616 -229.627 -9.951 -218.444 L -8.412 -211.989 Q -5.747 -200.806 -11.078 -200.806 L -14.155 -200.806 Q -19.486 -200.806 -16.821 -211.989 Z" style="fill: rgb(244, 214, 154); stroke-width: 0px;" transform="matrix(-0.978148, -0.207911, 0.207911, -0.978148, 68.478874, 63.508743)" bx:shape="triangle -19.486 -229.627 13.739 28.821 0.5 0.388 1@4c0e1776"/>
  <path d="M -15.282 -218.444 Q -12.616 -229.627 -9.951 -218.444 L -8.412 -211.989 Q -5.747 -200.806 -11.078 -200.806 L -14.155 -200.806 Q -19.486 -200.806 -16.821 -211.989 Z" style="fill: rgb(244, 214, 154); stroke-width: 0px;" transform="matrix(-0.978148, -0.207911, 0.207911, -0.978148, 112.904015, 67.092018)" bx:shape="triangle -19.486 -229.627 13.739 28.821 0.5 0.388 1@4c0e1776"/>
  <path d="M -15.282 -218.444 Q -12.616 -229.627 -9.951 -218.444 L -8.412 -211.989 Q -5.747 -200.806 -11.078 -200.806 L -14.155 -200.806 Q -19.486 -200.806 -16.821 -211.989 Z" style="fill: rgb(244, 214, 154); stroke-width: 0px;" transform="matrix(-0.978148, -0.207911, 0.207911, -0.978148, 154.708755, 64.551476)" bx:shape="triangle -19.486 -229.627 13.739 28.821 0.5 0.388 1@4c0e1776"/>
  <path d="M -15.282 -218.444 Q -12.616 -229.627 -9.951 -218.444 L -8.412 -211.989 Q -5.747 -200.806 -11.078 -200.806 L -14.155 -200.806 Q -19.486 -200.806 -16.821 -211.989 Z" style="fill: rgb(244, 214, 154); stroke-width: 0px;" transform="matrix(-0.66913, -0.743145, 0.743145, -0.66913, 168.574951, 14.162258)" bx:shape="triangle -19.486 -229.627 13.739 28.821 0.5 0.388 1@4c0e1776"/>
  <path d="M -15.282 -218.444 Q -12.616 -229.627 -9.951 -218.444 L -8.412 -211.989 Q -5.747 -200.806 -11.078 -200.806 L -14.155 -200.806 Q -19.486 -200.806 -16.821 -211.989 Z" style="fill: rgb(244, 214, 154); stroke-width: 0px;" transform="matrix(-0.66913, -0.743145, 0.743145, -0.66913, 165.764664, -17.751478)" bx:shape="triangle -19.486 -229.627 13.739 28.821 0.5 0.388 1@4c0e1776"/>
  <path d="M -15.282 -218.444 Q -12.616 -229.627 -9.951 -218.444 L -8.412 -211.989 Q -5.747 -200.806 -11.078 -200.806 L -14.155 -200.806 Q -19.486 -200.806 -16.821 -211.989 Z" style="fill: rgb(244, 214, 154); stroke-width: 0px;" transform="matrix(-0.866025, -0.5, 0.5, -0.866025, 145.02536, -32.265007)" bx:shape="triangle -19.486 -229.627 13.739 28.821 0.5 0.388 1@4c0e1776"/>
  <path d="M -15.282 -218.444 Q -12.616 -229.627 -9.951 -218.444 L -8.412 -211.989 Q -5.747 -200.806 -11.078 -200.806 L -14.155 -200.806 Q -19.486 -200.806 -16.821 -211.989 Z" style="fill: rgb(244, 214, 154); stroke-width: 0px;" transform="matrix(-0.939693, -0.34202, 0.34202, -0.939693, 136.130768, -44.384899)" bx:shape="triangle -19.486 -229.627 13.739 28.821 0.5 0.388 1@4c0e1776"/>
  <path d="M -15.282 -218.444 Q -12.616 -229.627 -9.951 -218.444 L -8.412 -211.989 Q -5.747 -200.806 -11.078 -200.806 L -14.155 -200.806 Q -19.486 -200.806 -16.821 -211.989 Z" style="fill: rgb(244, 214, 154); stroke-width: 0px;" transform="matrix(-0.987688, -0.156434, 0.156434, -0.987688, 125.011902, -51.685368)" bx:shape="triangle -19.486 -229.627 13.739 28.821 0.5 0.388 1@4c0e1776"/>
  <path d="M -15.282 -218.444 Q -12.616 -229.627 -9.951 -218.444 L -8.412 -211.989 Q -5.747 -200.806 -11.078 -200.806 L -14.155 -200.806 Q -19.486 -200.806 -16.821 -211.989 Z" style="fill: rgb(244, 214, 154); stroke-width: 0px;" transform="matrix(-0.987688, -0.156434, 0.156434, -0.987688, 115.997238, -90.65712)" bx:shape="triangle -19.486 -229.627 13.739 28.821 0.5 0.388 1@4c0e1776"/>
  <path d="M -15.282 -218.444 Q -12.616 -229.627 -9.951 -218.444 L -8.412 -211.989 Q -5.747 -200.806 -11.078 -200.806 L -14.155 -200.806 Q -19.486 -200.806 -16.821 -211.989 Z" style="fill: rgb(244, 214, 154); stroke-width: 0px;" transform="matrix(-0.933581, -0.358368, 0.358368, -0.933581, 129.609451, -80.059624)" bx:shape="triangle -19.486 -229.627 13.739 28.821 0.5 0.388 1@4c0e1776"/>
  <path d="M -15.282 -218.444 Q -12.616 -229.627 -9.951 -218.444 L -8.412 -211.989 Q -5.747 -200.806 -11.078 -200.806 L -14.155 -200.806 Q -19.486 -200.806 -16.821 -211.989 Z" style="fill: rgb(244, 214, 154); stroke-width: 0px;" transform="matrix(-0.987688, -0.156434, 0.156434, -0.987688, 61.815353, -113.256432)" bx:shape="triangle -19.486 -229.627 13.739 28.821 0.5 0.388 1@4c0e1776"/>
  <path d="M 23.69 240.81 Q 26.356 229.627 29.021 240.81 L 30.56 247.265 Q 33.225 258.448 27.894 258.448 L 24.817 258.448 Q 19.486 258.448 22.151 247.265 Z" style="fill: rgb(244, 214, 154); stroke-width: 0px;" transform="matrix(0.87462, -0.48481, -0.48481, -0.87462, 383.999817, 441.08316)" bx:shape="triangle 19.486 229.627 13.739 28.821 0.5 0.388 1@63dbaa0d"/>
  <path d="M 23.69 240.81 Q 26.356 229.627 29.021 240.81 L 30.56 247.265 Q 33.225 258.448 27.894 258.448 L 24.817 258.448 Q 19.486 258.448 22.151 247.265 Z" style="fill: rgb(244, 214, 154); stroke-width: 0px;" transform="matrix(0.866025, -0.5, -0.5, -0.866025, 351.57254, 455.175781)" bx:shape="triangle 19.486 229.627 13.739 28.821 0.5 0.388 1@63dbaa0d"/>
  <path d="M 23.69 240.81 Q 26.356 229.627 29.021 240.81 L 30.56 247.265 Q 33.225 258.448 27.894 258.448 L 24.817 258.448 Q 19.486 258.448 22.151 247.265 Z" style="fill: rgb(244, 214, 154); stroke-width: 0px;" transform="matrix(0.939693, -0.34202, -0.34202, -0.939693, 271.626923, 474.008087)" bx:shape="triangle 19.486 229.627 13.739 28.821 0.5 0.388 1@63dbaa0d"/>
  <path d="M 23.69 240.81 Q 26.356 229.627 29.021 240.81 L 30.56 247.265 Q 33.225 258.448 27.894 258.448 L 24.817 258.448 Q 19.486 258.448 22.151 247.265 Z" style="fill: rgb(244, 214, 154); stroke-width: 0px;" transform="matrix(0.978148, -0.207911, -0.207911, -0.978148, 201.346634, 483.671753)" bx:shape="triangle 19.486 229.627 13.739 28.821 0.5 0.388 1@63dbaa0d"/>
  <path d="M 23.69 240.81 Q 26.356 229.627 29.021 240.81 L 30.56 247.265 Q 33.225 258.448 27.894 258.448 L 24.817 258.448 Q 19.486 258.448 22.151 247.265 Z" style="fill: rgb(244, 214, 154); stroke-width: 0px;" transform="matrix(0.866025, -0.5, -0.5, -0.866025, 380.707397, 471.611542)" bx:shape="triangle 19.486 229.627 13.739 28.821 0.5 0.388 1@63dbaa0d"/>
  <path d="M 23.69 240.81 Q 26.356 229.627 29.021 240.81 L 30.56 247.265 Q 33.225 258.448 27.894 258.448 L 24.817 258.448 Q 19.486 258.448 22.151 247.265 Z" style="fill: rgb(244, 214, 154); stroke-width: 0px;" transform="matrix(0.866025, -0.5, -0.5, -0.866025, 355.460571, 419.178375)" bx:shape="triangle 19.486 229.627 13.739 28.821 0.5 0.388 1@63dbaa0d"/>
  <path d="M 23.69 240.81 Q 26.356 229.627 29.021 240.81 L 30.56 247.265 Q 33.225 258.448 27.894 258.448 L 24.817 258.448 Q 19.486 258.448 22.151 247.265 Z" style="fill: rgb(244, 214, 154); stroke-width: 0px;" transform="matrix(0.939693, -0.34202, -0.34202, -0.939693, 280.510681, 437.929504)" bx:shape="triangle 19.486 229.627 13.739 28.821 0.5 0.388 1@63dbaa0d"/>
  <path d="M 23.69 240.81 Q 26.356 229.627 29.021 240.81 L 30.56 247.265 Q 33.225 258.448 27.894 258.448 L 24.817 258.448 Q 19.486 258.448 22.151 247.265 Z" style="fill: rgb(244, 214, 154); stroke-width: 0px;" transform="matrix(0.939693, -0.34202, -0.34202, -0.939693, 296.697754, 497.797607)" bx:shape="triangle 19.486 229.627 13.739 28.821 0.5 0.388 1@63dbaa0d"/>
  <path d="M 23.69 240.81 Q 26.356 229.627 29.021 240.81 L 30.56 247.265 Q 33.225 258.448 27.894 258.448 L 24.817 258.448 Q 19.486 258.448 22.151 247.265 Z" style="fill: rgb(244, 214, 154); stroke-width: 0px;" transform="matrix(0.978148, -0.207911, -0.207911, -0.978148, 212.856308, 451.747223)" bx:shape="triangle 19.486 229.627 13.739 28.821 0.5 0.388 1@63dbaa0d"/>
  <path d="M 23.69 240.81 Q 26.356 229.627 29.021 240.81 L 30.56 247.265 Q 33.225 258.448 27.894 258.448 L 24.817 258.448 Q 19.486 258.448 22.151 247.265 Z" style="fill: rgb(244, 214, 154); stroke-width: 0px;" transform="matrix(0.978148, -0.207911, -0.207911, -0.978148, 220.664749, 508.129303)" bx:shape="triangle 19.486 229.627 13.739 28.821 0.5 0.388 1@63dbaa0d"/>
  <path d="M 23.69 240.81 Q 26.356 229.627 29.021 240.81 L 30.56 247.265 Q 33.225 258.448 27.894 258.448 L 24.817 258.448 Q 19.486 258.448 22.151 247.265 Z" style="fill: rgb(244, 214, 154); stroke-width: 0px;" transform="matrix(0.978148, -0.207911, -0.207911, -0.978148, 288.884674, 520.829468)" bx:shape="triangle 19.486 229.627 13.739 28.821 0.5 0.388 1@63dbaa0d"/>
  <path d="M 23.69 240.81 Q 26.356 229.627 29.021 240.81 L 30.56 247.265 Q 33.225 258.448 27.894 258.448 L 24.817 258.448 Q 19.486 258.448 22.151 247.265 Z" style="fill: rgb(244, 214, 154); stroke-width: 0px;" transform="matrix(0.978148, -0.207911, -0.207911, -0.978148, 244.459549, 524.412781)" bx:shape="triangle 19.486 229.627 13.739 28.821 0.5 0.388 1@63dbaa0d"/>
  <path d="M 23.69 240.81 Q 26.356 229.627 29.021 240.81 L 30.56 247.265 Q 33.225 258.448 27.894 258.448 L 24.817 258.448 Q 19.486 258.448 22.151 247.265 Z" style="fill: rgb(244, 214, 154); stroke-width: 0px;" transform="matrix(0.978148, -0.207911, -0.207911, -0.978148, 202.654831, 521.872253)" bx:shape="triangle 19.486 229.627 13.739 28.821 0.5 0.388 1@63dbaa0d"/>
  <path d="M 23.69 240.81 Q 26.356 229.627 29.021 240.81 L 30.56 247.265 Q 33.225 258.448 27.894 258.448 L 24.817 258.448 Q 19.486 258.448 22.151 247.265 Z" style="fill: rgb(244, 214, 154); stroke-width: 0px;" transform="matrix(0.66913, -0.743145, -0.743145, -0.66913, 446.640076, 350.424377)" bx:shape="triangle 19.486 229.627 13.739 28.821 0.5 0.388 1@63dbaa0d"/>
  <path d="M 23.69 240.81 Q 26.356 229.627 29.021 240.81 L 30.56 247.265 Q 33.225 258.448 27.894 258.448 L 24.817 258.448 Q 19.486 258.448 22.151 247.265 Z" style="fill: rgb(244, 214, 154); stroke-width: 0px;" transform="matrix(0.66913, -0.743145, -0.743145, -0.66913, 449.450378, 318.51062)" bx:shape="triangle 19.486 229.627 13.739 28.821 0.5 0.388 1@63dbaa0d"/>
  <path d="M 23.69 240.81 Q 26.356 229.627 29.021 240.81 L 30.56 247.265 Q 33.225 258.448 27.894 258.448 L 24.817 258.448 Q 19.486 258.448 22.151 247.265 Z" style="fill: rgb(244, 214, 154); stroke-width: 0px;" transform="matrix(0.866025, -0.5, -0.5, -0.866025, 350.850922, 384.946106)" bx:shape="triangle 19.486 229.627 13.739 28.821 0.5 0.388 1@63dbaa0d"/>
  <path d="M 23.69 240.81 Q 26.356 229.627 29.021 240.81 L 30.56 247.265 Q 33.225 258.448 27.894 258.448 L 24.817 258.448 Q 19.486 258.448 22.151 247.265 Z" style="fill: rgb(244, 214, 154); stroke-width: 0px;" transform="matrix(0.939693, -0.34202, -0.34202, -0.939693, 284.321564, 400.50174)" bx:shape="triangle 19.486 229.627 13.739 28.821 0.5 0.388 1@63dbaa0d"/>
  <path d="M 23.69 240.81 Q 26.356 229.627 29.021 240.81 L 30.56 247.265 Q 33.225 258.448 27.894 258.448 L 24.817 258.448 Q 19.486 258.448 22.151 247.265 Z" style="fill: rgb(244, 214, 154); stroke-width: 0px;" transform="matrix(0.987688, -0.156434, -0.156434, -0.987688, 208.338867, 408.010468)" bx:shape="triangle 19.486 229.627 13.739 28.821 0.5 0.388 1@63dbaa0d"/>
  <path d="M 23.69 240.81 Q 26.356 229.627 29.021 240.81 L 30.56 247.265 Q 33.225 258.448 27.894 258.448 L 24.817 258.448 Q 19.486 258.448 22.151 247.265 Z" style="fill: rgb(244, 214, 154); stroke-width: 0px;" transform="matrix(0.987688, -0.156434, -0.156434, -0.987688, 217.353546, 369.038727)" bx:shape="triangle 19.486 229.627 13.739 28.821 0.5 0.388 1@63dbaa0d"/>
  <path d="M 23.69 240.81 Q 26.356 229.627 29.021 240.81 L 30.56 247.265 Q 33.225 258.448 27.894 258.448 L 24.817 258.448 Q 19.486 258.448 22.151 247.265 Z" style="fill: rgb(244, 214, 154); stroke-width: 0px;" transform="matrix(0.933581, -0.358368, -0.358368, -0.933581, 298.588959, 362.657227)" bx:shape="triangle 19.486 229.627 13.739 28.821 0.5 0.388 1@63dbaa0d"/>
  <path d="M 23.69 240.81 Q 26.356 229.627 29.021 240.81 L 30.56 247.265 Q 33.225 258.448 27.894 258.448 L 24.817 258.448 Q 19.486 258.448 22.151 247.265 Z" style="fill: rgb(244, 214, 154); stroke-width: 0px;" transform="matrix(0.987688, -0.156434, -0.156434, -0.987688, 271.535431, 346.439392)" bx:shape="triangle 19.486 229.627 13.739 28.821 0.5 0.388 1@63dbaa0d"/>
  <path d="M -15.282 -218.444 Q -12.616 -229.627 -9.951 -218.444 L -8.412 -211.989 Q -5.747 -200.806 -11.078 -200.806 L -14.155 -200.806 Q -19.486 -200.806 -16.821 -211.989 Z" style="fill: rgb(244, 214, 154); stroke-width: 0px;" transform="matrix(-1, 0.000001, -0.000001, -1, 137.383286, 60.176205)" bx:shape="triangle -19.486 -229.627 13.739 28.821 0.5 0.388 1@4c0e1776"/>
  <path d="M -15.282 -218.444 Q -12.616 -229.627 -9.951 -218.444 L -8.412 -211.989 Q -5.747 -200.806 -11.078 -200.806 L -14.155 -200.806 Q -19.486 -200.806 -16.821 -211.989 Z" style="fill: rgb(244, 214, 154); stroke-width: 0px;" transform="matrix(-1, 0.000001, -0.000001, -1, 137.383286, 22.175383)" bx:shape="triangle -19.486 -229.627 13.739 28.821 0.5 0.388 1@4c0e1776"/>
  <path d="M -15.282 -218.444 Q -12.616 -229.627 -9.951 -218.444 L -8.412 -211.989 Q -5.747 -200.806 -11.078 -200.806 L -14.155 -200.806 Q -19.486 -200.806 -16.821 -211.989 Z" style="fill: rgb(244, 214, 154); stroke-width: 0px;" transform="matrix(-1, 0.000001, -0.000001, -1, 137.383286, -27.605871)" bx:shape="triangle -19.486 -229.627 13.739 28.821 0.5 0.388 1@4c0e1776"/>
  <path d="M -15.282 -218.444 Q -12.616 -229.627 -9.951 -218.444 L -8.412 -211.989 Q -5.747 -200.806 -11.078 -200.806 L -14.155 -200.806 Q -19.486 -200.806 -16.821 -211.989 Z" style="fill: rgb(244, 214, 154); stroke-width: 0px;" transform="matrix(-1, 0.000001, -0.000001, -1, 137.383286, -71.235809)" bx:shape="triangle -19.486 -229.627 13.739 28.821 0.5 0.388 1@4c0e1776"/>
  <path d="M -15.282 -218.444 Q -12.616 -229.627 -9.951 -218.444 L -8.412 -211.989 Q -5.747 -200.806 -11.078 -200.806 L -14.155 -200.806 Q -19.486 -200.806 -16.821 -211.989 Z" style="fill: rgb(244, 214, 154); stroke-width: 0px;" transform="matrix(-0.978148, -0.207911, 0.207911, -0.978148, 158.311127, -42.940155)" bx:shape="triangle -19.486 -229.627 13.739 28.821 0.5 0.388 1@4c0e1776"/>
  <path d="M 23.69 240.81 Q 26.356 229.627 29.021 240.81 L 30.56 247.265 Q 33.225 258.448 27.894 258.448 L 24.817 258.448 Q 19.486 258.448 22.151 247.265 Z" style="fill: rgb(244, 214, 154); stroke-width: 0px;" transform="matrix(0.978148, -0.207911, -0.207911, -0.978148, 199.052444, 413.380737)" bx:shape="triangle 19.486 229.627 13.739 28.821 0.5 0.388 1@63dbaa0d"/>
  <path d="M 147.693 7.552 L 160.596 87.591 L 134.79 87.591 L 147.693 7.552 Z" style="fill: url(#gradient-8);" transform="matrix(-0.978148, -0.207912, -0.207912, 0.978148, 327.264526, 28.301935)" bx:shape="triangle 134.79 7.552 25.806 80.039 0.5 0 1@7a81d768"/>
  <path d="M 110.369 4.6 L 123.272 84.639 L 97.466 84.639 L 110.369 4.6 Z" style="fill: url(#gradient-8);" transform="matrix(-0.956305, -0.292372, -0.292372, 0.956305, 308.22287, 34.207493)" bx:shape="triangle 97.466 4.6 25.806 80.039 0.5 0 1@21a3da53"/>
  <path d="M -84.563 -4.561 L -71.66 74.804 L -97.466 74.804 L -84.563 -4.561 Z" style="fill: url(#gradient-8);" transform="matrix(-0.829037, -0.559193, -0.559193, 0.829037, 170.368042, -33.4505)" bx:shape="triangle -97.466 -4.561 25.806 79.365 0.5 0 1@7ce2e0c0"/>
  <path d="M 110.369 4.767 L 123.272 87.701 L 97.466 87.701 L 110.369 4.767 Z" style="fill: url(#gradient-8);" transform="matrix(0.829037, -0.559193, 0.559193, 0.829037, -39.185543, 64.873344)" bx:shape="triangle 97.466 4.767 25.806 82.934 0.5 0 1@0aec139d"/>
  <path d="M 150 7.552 L 162.903 87.591 L 137.097 87.591 L 150 7.552 Z" style="fill: url(#gradient-8);" bx:shape="triangle 137.097 7.552 25.806 80.039 0.5 0 1@6b8a25b4"/>
  <path d="M 147.693 7.552 L 160.596 87.591 L 134.79 87.591 L 147.693 7.552 Z" style="fill: url(#gradient-8);" transform="matrix(0.978148, -0.207912, 0.207912, 0.978148, -27.264521, 28.312881)" bx:shape="triangle 134.79 7.552 25.806 80.039 0.5 0 1@7a81d768"/>
  <path d="M 110.369 4.6 L 123.272 84.639 L 97.466 84.639 L 110.369 4.6 Z" style="fill: url(#gradient-8);" transform="matrix(0.956305, -0.292372, 0.292372, 0.956305, -8.222879, 34.218433)" bx:shape="triangle 97.466 4.6 25.806 80.039 0.5 0 1@21a3da53"/>
  <ellipse style="fill: url(#gradient-8);" cx="147.028" cy="80.849" rx="67.499" ry="21.04"/>
</svg>
