<svg id="easGQk1hjvJ1" xmlns="http://www.w3.org/2000/svg" xmlns:xlink="http://www.w3.org/1999/xlink" viewBox="0 0 300 345" shape-rendering="geometricPrecision" text-rendering="geometricPrecision"><style><![CDATA[#easGQk1hjvJ4_to {animation: easGQk1hjvJ4_to__to 7500ms linear 1 normal forwards}@keyframes fish1 { 0% {offset-distance: 0%} 8.4% {offset-distance: 4.426376%} 30.666667% {offset-distance: 24.267988%} 50.666667% {offset-distance: 50.623872%} 72% {offset-distance: 75.1169%} 100% {offset-distance: 100%}} #easGQk1hjvJ20_to {animation: easGQk1hjvJ20_to__to 7500ms linear 1 normal forwards}@keyframes fish2 { 0% {transform: translate(57.119663px,274.050671px)} 28% {transform: translate(242.230697px,140.808731px)} 52.533333% {transform: translate(57.015784px,273.024917px)} 77.333333% {transform: translate(241.477584px,141.641625px)} 100% {transform: translate(57.119674px,274.050671px)}} #easGQk1hjvJ33_to {animation: easGQk1hjvJ33_to__to 7500ms linear 1 normal forwards}@keyframes fish3 { 0% {offset-distance: 0%} 48% {offset-distance: 49.993273%} 100% {offset-distance: 100%}} #easGQk1hjvJ46_to {animation: easGQk1hjvJ46_to__to 7500ms linear 1 normal forwards}@keyframes fish4 { 0% {transform: translate(197.466115px,135.114314px)} 8% {transform: translate(245.531528px,172.95454px)} 53.333333% {transform: translate(91.350267px,275.929909px)} 64% {transform: translate(55.203492px,249.129634px)} 100% {transform: translate(197.418705px,135.696068px)}} #easGQk1hjvJ59_to {animation: easGQk1hjvJ59_to__to 7500ms linear 1 normal forwards}@keyframes fish5 { 0% {transform: translate(141.229929px,275.412761px)} 13.333333% {transform: translate(242.616681px,248.390609px)} 26.666667% {transform: translate(140.902833px,224.185874px)} 40% {transform: translate(54.18537px,209.82727px)} 66.666667% {transform: translate(239.876183px,162.875484px)} 72% {transform: translate(226.431528px,150.341265px)} 100% {transform: translate(141.29023px,275.517315px)}} #easGQk1hjvJ72_to {animation: easGQk1hjvJ72_to__to 7500ms linear 1 normal forwards}@keyframes fish6 { 0% {transform: translate(250.638382px,203.336958px)} 29.333333% {transform: translate(149.287596px,276.781538px)} 57.333333% {transform: translate(47.73125px,203.930908px)} 80% {transform: translate(149.338761px,144.52582px)} 100% {transform: translate(250.822319px,203.336958px)}} #easGQk1hjvJ85_to {animation: easGQk1hjvJ85_to__to 7500ms linear 1 normal forwards}@keyframes fish7 { 0% {transform: translate(141.303414px,208.341128px)} 20% {transform: translate(143.330475px,142.525053px)} 40% {transform: translate(141.178925px,208.453333px)} 65.333333% {transform: translate(138.534886px,279.05781px)} 100% {transform: translate(141.303414px,208.341128px)}}]]></style><defs><linearGradient id="easGQk1hjvJ2-fill" x1="149.66997" y1="-64.89997" x2="150.73997" y2="697.94003" spreadMethod="pad" gradientUnits="userSpaceOnUse" gradientTransform="translate(0 0)"><stop id="easGQk1hjvJ2-fill-0" offset="19%" stop-color="#c7eaf7"/><stop id="easGQk1hjvJ2-fill-1" offset="63%" stop-color="#0fafd2"/></linearGradient><linearGradient id="easGQk1hjvJ12-fill" x1="174.12" y1="59.42" x2="-32.15" y2="59.42" spreadMethod="pad" gradientUnits="userSpaceOnUse" gradientTransform="translate(0 0)"><stop id="easGQk1hjvJ12-fill-0" offset="19%" stop-color="#f18221"/><stop id="easGQk1hjvJ12-fill-1" offset="85%" stop-color="#d25927"/></linearGradient><linearGradient id="easGQk1hjvJ18-fill" x1="149.99997" y1="419.74003" x2="149.99997" y2="231.31003" spreadMethod="pad" gradientUnits="userSpaceOnUse" gradientTransform="translate(0 0)"><stop id="easGQk1hjvJ18-fill-0" offset="0%" stop-color="#61cbed"/><stop id="easGQk1hjvJ18-fill-1" offset="70%" stop-color="#0fafd2"/></linearGradient><linearGradient id="easGQk1hjvJ28-fill" x1="174.12" y1="59.42" x2="-32.15" y2="59.42" spreadMethod="pad" gradientUnits="userSpaceOnUse" gradientTransform="translate(0 0)"><stop id="easGQk1hjvJ28-fill-0" offset="19%" stop-color="#f18221"/><stop id="easGQk1hjvJ28-fill-1" offset="85%" stop-color="#d25927"/></linearGradient><linearGradient id="easGQk1hjvJ41-fill" x1="174.12" y1="59.42" x2="-32.15" y2="59.42" spreadMethod="pad" gradientUnits="userSpaceOnUse" gradientTransform="translate(0 0)"><stop id="easGQk1hjvJ41-fill-0" offset="19%" stop-color="#f18221"/><stop id="easGQk1hjvJ41-fill-1" offset="85%" stop-color="#d25927"/></linearGradient><linearGradient id="easGQk1hjvJ54-fill" x1="174.12" y1="59.42" x2="-32.15" y2="59.42" spreadMethod="pad" gradientUnits="userSpaceOnUse" gradientTransform="translate(0 0)"><stop id="easGQk1hjvJ54-fill-0" offset="19%" stop-color="#f18221"/><stop id="easGQk1hjvJ54-fill-1" offset="85%" stop-color="#d25927"/></linearGradient><linearGradient id="easGQk1hjvJ67-fill" x1="174.12" y1="59.42" x2="-32.15" y2="59.42" spreadMethod="pad" gradientUnits="userSpaceOnUse" gradientTransform="translate(0 0)"><stop id="easGQk1hjvJ67-fill-0" offset="19%" stop-color="#f18221"/><stop id="easGQk1hjvJ67-fill-1" offset="85%" stop-color="#d25927"/></linearGradient><linearGradient id="easGQk1hjvJ80-fill" x1="174.12" y1="59.42" x2="-32.15" y2="59.42" spreadMethod="pad" gradientUnits="userSpaceOnUse" gradientTransform="translate(0 0)"><stop id="easGQk1hjvJ80-fill-0" offset="19%" stop-color="#f18221"/><stop id="easGQk1hjvJ80-fill-1" offset="85%" stop-color="#d25927"/></linearGradient><linearGradient id="easGQk1hjvJ93-fill" x1="174.12" y1="59.42" x2="-32.15" y2="59.42" spreadMethod="pad" gradientUnits="userSpaceOnUse" gradientTransform="translate(0 0)"><stop id="easGQk1hjvJ93-fill-0" offset="19%" stop-color="#f18221"/><stop id="easGQk1hjvJ93-fill-1" offset="85%" stop-color="#d25927"/></linearGradient></defs><path d="M275.25,46.91v-10.53C275.25,16.288,258.962,0,238.87,0L61.19,0c-20.112-.028-36.43,16.268-36.43,36.38v10.53C9.967,51.899,0.005,65.768,0,81.38L0,262c0,20.092,16.288,36.38,36.38,36.38h227.24c20.092,0,36.38-16.288,36.38-36.38v-180.62c0-15.61-9.959-29.48-24.75-34.47Z" fill="url(#easGQk1hjvJ2-fill)" fill-opacity="0.8"/><path d="M245.44,72.33h-194.5c-17.2,0-31.14,14.93-31.14,33.35v141.52v42.74c0,18.42,13.94,33.35,31.14,33.35h194.5c17.2,0,31.14-14.93,31.14-33.35v-184.26c0-18.42-13.94-33.35-31.14-33.35Z" fill="#61cbed"/><g id="fish_1" style="animation: fish1 7.50s linear 0s infinite normal;offset-path:path('M247.189384,262.018508C247.189384,262.018508,211.363636,283.636364,211.363636,283.636364L27.727275,245.454545L272.272727,197.81L50.301962,131.954928L247.189378,260.657517');offset-rotate:0deg"><g transform="scale(0.219722,0.219722) translate(-172.279995,-228.774324)"><path d="M47.63,236.33c30.22,18.16,46.23,6.63,54.3-6v8c0,18.15,14.71,32.864,32.86,32.87h2.49c.627,5.42,1.585,10.797,2.87,16.1c25.63,0,40.37-7.33,48.85-16.1h20.77c18.15-.006,32.86-14.72,32.86-32.87v-10.53c2.46,1.35,5.25,1.71,7.77-.81c4.39-4.39.13-9.68-2.94-12.56c3.12-2.83,7.43-8.05,3-12.43-2.54-2.53-5.38-2.18-7.88-.84v-15.9c0-18.148-14.712-32.86-32.86-32.86h-7.89c-.08-.27-.17-.54-.25-.81-.031-.078-.058-.159-.08-.24-.18-.53-.37-1.07-.57-1.61l-.1-.25c-.21-.55-.43-1.11-.68-1.67c0-.06,0-.13-.08-.19-5.63-12.77-20-27.74-56.66-27.74-2.073,8.522-3.266,17.234-3.56,26c0,1.76,0,3.52.1,5.25c0,.09,0,.17,0,.26c0,.35.05.7.07,1h-5.29c-18.148,0-32.86,14.712-32.86,32.86v2.22c-8.07-12.62-24.08-24.16-54.3-6c0,0,3.51,17.85,16.14,27.42-12.57,9.57-16.08,27.43-16.08,27.43Zm195-21.72v-.33l.17.16-.17.17Z" fill="none" stroke="#8e281d" stroke-width="12" stroke-miterlimit="10"/><path d="M63.77,208.91c-12.63-9.57-16.14-27.42-16.14-27.42c51.46-30.94,61.73,24.27,61.73,24.27-2,1.18-4,2.22-5.84,3.15c1.89.93,3.83,2,5.84,3.14c0,0-10.27,55.22-61.73,24.28c0,0,3.51-17.86,16.14-27.42Z" fill="#f18221"/><path d="M200.33,241.81c0,0,3.71,45.54-60.18,45.54c0,0-8-31.12,0-45.54h60.18Z" fill="#f18221"/><path d="M184.54,275.22h-46.73c-1.53-10.33-2.44-24.82,2.34-33.41h60.18c.338,13.012-5.522,25.411-15.79,33.41Z" fill="#d25927"/><path d="M203.64,165.44c0,0,3.71-45.55-60.18-45.55c0,0-8,31.12,0,45.55h60.18Z" fill="#f18221"/><path d="M199.28,145.85c3.062,6.065,4.561,12.799,4.36,19.59h-60.18c-2.86-5.14-3.68-12.38-3.56-19.59h59.38Z" fill="#d25927"/><path d="M235.84,207.49c0,0,8.29-11.86,14.67-5.49c4.38,4.39.07,9.6-3,12.43c3.07,2.88,7.33,8.17,2.94,12.56-6.37,6.37-14.51-5.64-14.51-5.64l6.91-6.91-7.01-6.95Z" fill="#f18221"/><rect width="140.7" height="118.85" rx="32.86" ry="32.86" transform="translate(101.93 152.4)" fill="url(#easGQk1hjvJ12-fill)"/><rect width="128.2" height="94.38" rx="29.94" ry="29.94" transform="translate(108.18 157.68)" fill="#f18221"/><circle r="31.15" transform="translate(191.67 201.61)" fill="#d25927"/><circle r="31.15" transform="translate(191.67 210.26)" fill="#fff"/><path d="M180.06,209.84c0,15.088,16.333,24.518,29.4,16.974s13.067-26.404,0-33.948c-2.98-1.72-6.359-2.626-9.8-2.626-.951-.001-1.9.069-2.84.21c1.218,1.838,1.865,3.995,1.86,6.2.031,8.691-9.357,14.157-16.9,9.839-.438-.251-.859-.532-1.26-.839-.305,1.376-.459,2.781-.46,4.19ZM203.39,218c0-3.587,3.883-5.829,6.99-4.036c3.107,1.794,3.107,6.278,0,8.072-.708.409-1.512.624-2.33.624-2.574,0-4.66-2.086-4.66-4.66Z" fill="#414042"/></g></g><path d="M235.26,82.64h-174.14c-15.39,0-27.87,6.19-27.87,13.83v2.63c0,7.64,12.48,13.83,27.87,13.83h174.14c15.39,0,27.87-6.19,27.87-13.83v-2.63c0-7.64-12.48-13.83-27.87-13.83Z" fill="#0fafd2"/><path d="M263.62,298.39h-227.24C16.284,298.39,-0.006,282.096,0,262v46.61C-0.006,328.706,16.284,345,36.38,345h227.24c20.092,0,36.38-16.288,36.38-36.38v-46.62c.005,20.096-16.284,36.39-36.38,36.39Z" fill="url(#easGQk1hjvJ18-fill)" fill-opacity="0.9"/><path d="M220.78,18.66h-145.18c-12.84,0-23.25,5.74-23.25,12.83v2.44c0,7.09,10.41,12.83,23.25,12.83h145.18c12.84,0,23.25-5.74,23.25-12.83v-2.44c0-7.09-10.41-12.83-23.25-12.83Z" opacity="0.5" fill="#04859b"/><g id="fish_2" style="animation: fish2 7.50s linear 0s infinite normal;" transform="translate(57.119663,274.050671)"><g transform="scale(0.219722,0.219722) translate(-172.279995,-228.774324)"><path d="M47.63,236.33c30.22,18.16,46.23,6.63,54.3-6v8c0,18.15,14.71,32.864,32.86,32.87h2.49c.627,5.42,1.585,10.797,2.87,16.1c25.63,0,40.37-7.33,48.85-16.1h20.77c18.15-.006,32.86-14.72,32.86-32.87v-10.53c2.46,1.35,5.25,1.71,7.77-.81c4.39-4.39.13-9.68-2.94-12.56c3.12-2.83,7.43-8.05,3-12.43-2.54-2.53-5.38-2.18-7.88-.84v-15.9c0-18.148-14.712-32.86-32.86-32.86h-7.89c-.08-.27-.17-.54-.25-.81-.031-.078-.058-.159-.08-.24-.18-.53-.37-1.07-.57-1.61l-.1-.25c-.21-.55-.43-1.11-.68-1.67c0-.06,0-.13-.08-.19-5.63-12.77-20-27.74-56.66-27.74-2.073,8.522-3.266,17.234-3.56,26c0,1.76,0,3.52.1,5.25c0,.09,0,.17,0,.26c0,.35.05.7.07,1h-5.29c-18.148,0-32.86,14.712-32.86,32.86v2.22c-8.07-12.62-24.08-24.16-54.3-6c0,0,3.51,17.85,16.14,27.42-12.57,9.57-16.08,27.43-16.08,27.43Zm195-21.72v-.33l.17.16-.17.17Z" fill="none" stroke="#8e281d" stroke-width="12" stroke-miterlimit="10"/><path d="M63.77,208.91c-12.63-9.57-16.14-27.42-16.14-27.42c51.46-30.94,61.73,24.27,61.73,24.27-2,1.18-4,2.22-5.84,3.15c1.89.93,3.83,2,5.84,3.14c0,0-10.27,55.22-61.73,24.28c0,0,3.51-17.86,16.14-27.42Z" fill="#f18221"/><path d="M200.33,241.81c0,0,3.71,45.54-60.18,45.54c0,0-8-31.12,0-45.54h60.18Z" fill="#f18221"/><path d="M184.54,275.22h-46.73c-1.53-10.33-2.44-24.82,2.34-33.41h60.18c.338,13.012-5.522,25.411-15.79,33.41Z" fill="#d25927"/><path d="M203.64,165.44c0,0,3.71-45.55-60.18-45.55c0,0-8,31.12,0,45.55h60.18Z" fill="#f18221"/><path d="M199.28,145.85c3.062,6.065,4.561,12.799,4.36,19.59h-60.18c-2.86-5.14-3.68-12.38-3.56-19.59h59.38Z" fill="#d25927"/><path d="M235.84,207.49c0,0,8.29-11.86,14.67-5.49c4.38,4.39.07,9.6-3,12.43c3.07,2.88,7.33,8.17,2.94,12.56-6.37,6.37-14.51-5.64-14.51-5.64l6.91-6.91-7.01-6.95Z" fill="#f18221"/><rect width="140.7" height="118.85" rx="32.86" ry="32.86" transform="translate(101.93 152.4)" fill="url(#easGQk1hjvJ28-fill)"/><rect width="128.2" height="94.38" rx="29.94" ry="29.94" transform="translate(108.18 157.68)" fill="#f18221"/><circle r="31.15" transform="translate(191.67 201.61)" fill="#d25927"/><circle r="31.15" transform="translate(191.67 210.26)" fill="#fff"/><path d="M180.06,209.84c0,15.088,16.333,24.518,29.4,16.974s13.067-26.404,0-33.948c-2.98-1.72-6.359-2.626-9.8-2.626-.951-.001-1.9.069-2.84.21c1.218,1.838,1.865,3.995,1.86,6.2.031,8.691-9.357,14.157-16.9,9.839-.438-.251-.859-.532-1.26-.839-.305,1.376-.459,2.781-.46,4.19ZM203.39,218c0-3.587,3.883-5.829,6.99-4.036c3.107,1.794,3.107,6.278,0,8.072-.708.409-1.512.624-2.33.624-2.574,0-4.66-2.086-4.66-4.66Z" fill="#414042"/></g></g><g id="fish_3" style="animation: fish3 7.50s linear 0s infinite normal;offset-path:path('M73.059836,149.030253C73.059836,149.030253,263.130002,149.030254,263.130002,149.030254Q263.130002,149.030254,73.008697,149.089222');offset-rotate:0deg"><g transform="scale(0.219722,0.219722) translate(-172.279995,-228.774324)"><path d="M47.63,236.33c30.22,18.16,46.23,6.63,54.3-6v8c0,18.15,14.71,32.864,32.86,32.87h2.49c.627,5.42,1.585,10.797,2.87,16.1c25.63,0,40.37-7.33,48.85-16.1h20.77c18.15-.006,32.86-14.72,32.86-32.87v-10.53c2.46,1.35,5.25,1.71,7.77-.81c4.39-4.39.13-9.68-2.94-12.56c3.12-2.83,7.43-8.05,3-12.43-2.54-2.53-5.38-2.18-7.88-.84v-15.9c0-18.148-14.712-32.86-32.86-32.86h-7.89c-.08-.27-.17-.54-.25-.81-.031-.078-.058-.159-.08-.24-.18-.53-.37-1.07-.57-1.61l-.1-.25c-.21-.55-.43-1.11-.68-1.67c0-.06,0-.13-.08-.19-5.63-12.77-20-27.74-56.66-27.74-2.073,8.522-3.266,17.234-3.56,26c0,1.76,0,3.52.1,5.25c0,.09,0,.17,0,.26c0,.35.05.7.07,1h-5.29c-18.148,0-32.86,14.712-32.86,32.86v2.22c-8.07-12.62-24.08-24.16-54.3-6c0,0,3.51,17.85,16.14,27.42-12.57,9.57-16.08,27.43-16.08,27.43Zm195-21.72v-.33l.17.16-.17.17Z" fill="none" stroke="#8e281d" stroke-width="12" stroke-miterlimit="10"/><path d="M63.77,208.91c-12.63-9.57-16.14-27.42-16.14-27.42c51.46-30.94,61.73,24.27,61.73,24.27-2,1.18-4,2.22-5.84,3.15c1.89.93,3.83,2,5.84,3.14c0,0-10.27,55.22-61.73,24.28c0,0,3.51-17.86,16.14-27.42Z" fill="#f18221"/><path d="M200.33,241.81c0,0,3.71,45.54-60.18,45.54c0,0-8-31.12,0-45.54h60.18Z" fill="#f18221"/><path d="M184.54,275.22h-46.73c-1.53-10.33-2.44-24.82,2.34-33.41h60.18c.338,13.012-5.522,25.411-15.79,33.41Z" fill="#d25927"/><path d="M203.64,165.44c0,0,3.71-45.55-60.18-45.55c0,0-8,31.12,0,45.55h60.18Z" fill="#f18221"/><path d="M199.28,145.85c3.062,6.065,4.561,12.799,4.36,19.59h-60.18c-2.86-5.14-3.68-12.38-3.56-19.59h59.38Z" fill="#d25927"/><path d="M235.84,207.49c0,0,8.29-11.86,14.67-5.49c4.38,4.39.07,9.6-3,12.43c3.07,2.88,7.33,8.17,2.94,12.56-6.37,6.37-14.51-5.64-14.51-5.64l6.91-6.91-7.01-6.95Z" fill="#f18221"/><rect width="140.7" height="118.85" rx="32.86" ry="32.86" transform="translate(101.93 152.4)" fill="url(#easGQk1hjvJ41-fill)"/><rect width="128.2" height="94.38" rx="29.94" ry="29.94" transform="translate(108.18 157.68)" fill="#f18221"/><circle r="31.15" transform="translate(191.67 201.61)" fill="#d25927"/><circle r="31.15" transform="translate(191.67 210.26)" fill="#fff"/><path d="M180.06,209.84c0,15.088,16.333,24.518,29.4,16.974s13.067-26.404,0-33.948c-2.98-1.72-6.359-2.626-9.8-2.626-.951-.001-1.9.069-2.84.21c1.218,1.838,1.865,3.995,1.86,6.2.031,8.691-9.357,14.157-16.9,9.839-.438-.251-.859-.532-1.26-.839-.305,1.376-.459,2.781-.46,4.19ZM203.39,218c0-3.587,3.883-5.829,6.99-4.036c3.107,1.794,3.107,6.278,0,8.072-.708.409-1.512.624-2.33.624-2.574,0-4.66-2.086-4.66-4.66Z" fill="#414042"/></g></g><g id="fish_4" style="animation: fish4 7.50s linear 0s infinite normal;" transform="translate(197.466115,135.114314)"><g transform="scale(0.219722,0.219722) translate(-172.279995,-228.774324)"><path d="M47.63,236.33c30.22,18.16,46.23,6.63,54.3-6v8c0,18.15,14.71,32.864,32.86,32.87h2.49c.627,5.42,1.585,10.797,2.87,16.1c25.63,0,40.37-7.33,48.85-16.1h20.77c18.15-.006,32.86-14.72,32.86-32.87v-10.53c2.46,1.35,5.25,1.71,7.77-.81c4.39-4.39.13-9.68-2.94-12.56c3.12-2.83,7.43-8.05,3-12.43-2.54-2.53-5.38-2.18-7.88-.84v-15.9c0-18.148-14.712-32.86-32.86-32.86h-7.89c-.08-.27-.17-.54-.25-.81-.031-.078-.058-.159-.08-.24-.18-.53-.37-1.07-.57-1.61l-.1-.25c-.21-.55-.43-1.11-.68-1.67c0-.06,0-.13-.08-.19-5.63-12.77-20-27.74-56.66-27.74-2.073,8.522-3.266,17.234-3.56,26c0,1.76,0,3.52.1,5.25c0,.09,0,.17,0,.26c0,.35.05.7.07,1h-5.29c-18.148,0-32.86,14.712-32.86,32.86v2.22c-8.07-12.62-24.08-24.16-54.3-6c0,0,3.51,17.85,16.14,27.42-12.57,9.57-16.08,27.43-16.08,27.43Zm195-21.72v-.33l.17.16-.17.17Z" fill="none" stroke="#8e281d" stroke-width="12" stroke-miterlimit="10"/><path d="M63.77,208.91c-12.63-9.57-16.14-27.42-16.14-27.42c51.46-30.94,61.73,24.27,61.73,24.27-2,1.18-4,2.22-5.84,3.15c1.89.93,3.83,2,5.84,3.14c0,0-10.27,55.22-61.73,24.28c0,0,3.51-17.86,16.14-27.42Z" fill="#f18221"/><path d="M200.33,241.81c0,0,3.71,45.54-60.18,45.54c0,0-8-31.12,0-45.54h60.18Z" fill="#f18221"/><path d="M184.54,275.22h-46.73c-1.53-10.33-2.44-24.82,2.34-33.41h60.18c.338,13.012-5.522,25.411-15.79,33.41Z" fill="#d25927"/><path d="M203.64,165.44c0,0,3.71-45.55-60.18-45.55c0,0-8,31.12,0,45.55h60.18Z" fill="#f18221"/><path d="M199.28,145.85c3.062,6.065,4.561,12.799,4.36,19.59h-60.18c-2.86-5.14-3.68-12.38-3.56-19.59h59.38Z" fill="#d25927"/><path d="M235.84,207.49c0,0,8.29-11.86,14.67-5.49c4.38,4.39.07,9.6-3,12.43c3.07,2.88,7.33,8.17,2.94,12.56-6.37,6.37-14.51-5.64-14.51-5.64l6.91-6.91-7.01-6.95Z" fill="#f18221"/><rect width="140.7" height="118.85" rx="32.86" ry="32.86" transform="translate(101.93 152.4)" fill="url(#easGQk1hjvJ54-fill)"/><rect width="128.2" height="94.38" rx="29.94" ry="29.94" transform="translate(108.18 157.68)" fill="#f18221"/><circle r="31.15" transform="translate(191.67 201.61)" fill="#d25927"/><circle r="31.15" transform="translate(191.67 210.26)" fill="#fff"/><path d="M180.06,209.84c0,15.088,16.333,24.518,29.4,16.974s13.067-26.404,0-33.948c-2.98-1.72-6.359-2.626-9.8-2.626-.951-.001-1.9.069-2.84.21c1.218,1.838,1.865,3.995,1.86,6.2.031,8.691-9.357,14.157-16.9,9.839-.438-.251-.859-.532-1.26-.839-.305,1.376-.459,2.781-.46,4.19ZM203.39,218c0-3.587,3.883-5.829,6.99-4.036c3.107,1.794,3.107,6.278,0,8.072-.708.409-1.512.624-2.33.624-2.574,0-4.66-2.086-4.66-4.66Z" fill="#414042"/></g></g><g id="fish_5" style="animation: fish5 7.50s linear 0s infinite normal;" transform="translate(141.229929,275.412761)"><g transform="scale(0.219722,0.219722) translate(-172.279995,-228.774324)"><path d="M47.63,236.33c30.22,18.16,46.23,6.63,54.3-6v8c0,18.15,14.71,32.864,32.86,32.87h2.49c.627,5.42,1.585,10.797,2.87,16.1c25.63,0,40.37-7.33,48.85-16.1h20.77c18.15-.006,32.86-14.72,32.86-32.87v-10.53c2.46,1.35,5.25,1.71,7.77-.81c4.39-4.39.13-9.68-2.94-12.56c3.12-2.83,7.43-8.05,3-12.43-2.54-2.53-5.38-2.18-7.88-.84v-15.9c0-18.148-14.712-32.86-32.86-32.86h-7.89c-.08-.27-.17-.54-.25-.81-.031-.078-.058-.159-.08-.24-.18-.53-.37-1.07-.57-1.61l-.1-.25c-.21-.55-.43-1.11-.68-1.67c0-.06,0-.13-.08-.19-5.63-12.77-20-27.74-56.66-27.74-2.073,8.522-3.266,17.234-3.56,26c0,1.76,0,3.52.1,5.25c0,.09,0,.17,0,.26c0,.35.05.7.07,1h-5.29c-18.148,0-32.86,14.712-32.86,32.86v2.22c-8.07-12.62-24.08-24.16-54.3-6c0,0,3.51,17.85,16.14,27.42-12.57,9.57-16.08,27.43-16.08,27.43Zm195-21.72v-.33l.17.16-.17.17Z" fill="none" stroke="#8e281d" stroke-width="12" stroke-miterlimit="10"/><path d="M63.77,208.91c-12.63-9.57-16.14-27.42-16.14-27.42c51.46-30.94,61.73,24.27,61.73,24.27-2,1.18-4,2.22-5.84,3.15c1.89.93,3.83,2,5.84,3.14c0,0-10.27,55.22-61.73,24.28c0,0,3.51-17.86,16.14-27.42Z" fill="#f18221"/><path d="M200.33,241.81c0,0,3.71,45.54-60.18,45.54c0,0-8-31.12,0-45.54h60.18Z" fill="#f18221"/><path d="M184.54,275.22h-46.73c-1.53-10.33-2.44-24.82,2.34-33.41h60.18c.338,13.012-5.522,25.411-15.79,33.41Z" fill="#d25927"/><path d="M203.64,165.44c0,0,3.71-45.55-60.18-45.55c0,0-8,31.12,0,45.55h60.18Z" fill="#f18221"/><path d="M199.28,145.85c3.062,6.065,4.561,12.799,4.36,19.59h-60.18c-2.86-5.14-3.68-12.38-3.56-19.59h59.38Z" fill="#d25927"/><path d="M235.84,207.49c0,0,8.29-11.86,14.67-5.49c4.38,4.39.07,9.6-3,12.43c3.07,2.88,7.33,8.17,2.94,12.56-6.37,6.37-14.51-5.64-14.51-5.64l6.91-6.91-7.01-6.95Z" fill="#f18221"/><rect width="140.7" height="118.85" rx="32.86" ry="32.86" transform="translate(101.93 152.4)" fill="url(#easGQk1hjvJ67-fill)"/><rect width="128.2" height="94.38" rx="29.94" ry="29.94" transform="translate(108.18 157.68)" fill="#f18221"/><circle r="31.15" transform="translate(191.67 201.61)" fill="#d25927"/><circle r="31.15" transform="translate(191.67 210.26)" fill="#fff"/><path d="M180.06,209.84c0,15.088,16.333,24.518,29.4,16.974s13.067-26.404,0-33.948c-2.98-1.72-6.359-2.626-9.8-2.626-.951-.001-1.9.069-2.84.21c1.218,1.838,1.865,3.995,1.86,6.2.031,8.691-9.357,14.157-16.9,9.839-.438-.251-.859-.532-1.26-.839-.305,1.376-.459,2.781-.46,4.19ZM203.39,218c0-3.587,3.883-5.829,6.99-4.036c3.107,1.794,3.107,6.278,0,8.072-.708.409-1.512.624-2.33.624-2.574,0-4.66-2.086-4.66-4.66Z" fill="#414042"/></g></g><g id="fish6" style="animation: fish6 7.50s linear 0s infinite normal;" transform="translate(250.638382,203.336958)"><g transform="scale(0.219722,0.219722) translate(-172.279995,-228.774324)"><path d="M47.63,236.33c30.22,18.16,46.23,6.63,54.3-6v8c0,18.15,14.71,32.864,32.86,32.87h2.49c.627,5.42,1.585,10.797,2.87,16.1c25.63,0,40.37-7.33,48.85-16.1h20.77c18.15-.006,32.86-14.72,32.86-32.87v-10.53c2.46,1.35,5.25,1.71,7.77-.81c4.39-4.39.13-9.68-2.94-12.56c3.12-2.83,7.43-8.05,3-12.43-2.54-2.53-5.38-2.18-7.88-.84v-15.9c0-18.148-14.712-32.86-32.86-32.86h-7.89c-.08-.27-.17-.54-.25-.81-.031-.078-.058-.159-.08-.24-.18-.53-.37-1.07-.57-1.61l-.1-.25c-.21-.55-.43-1.11-.68-1.67c0-.06,0-.13-.08-.19-5.63-12.77-20-27.74-56.66-27.74-2.073,8.522-3.266,17.234-3.56,26c0,1.76,0,3.52.1,5.25c0,.09,0,.17,0,.26c0,.35.05.7.07,1h-5.29c-18.148,0-32.86,14.712-32.86,32.86v2.22c-8.07-12.62-24.08-24.16-54.3-6c0,0,3.51,17.85,16.14,27.42-12.57,9.57-16.08,27.43-16.08,27.43Zm195-21.72v-.33l.17.16-.17.17Z" fill="none" stroke="#8e281d" stroke-width="12" stroke-miterlimit="10"/><path d="M63.77,208.91c-12.63-9.57-16.14-27.42-16.14-27.42c51.46-30.94,61.73,24.27,61.73,24.27-2,1.18-4,2.22-5.84,3.15c1.89.93,3.83,2,5.84,3.14c0,0-10.27,55.22-61.73,24.28c0,0,3.51-17.86,16.14-27.42Z" fill="#f18221"/><path d="M200.33,241.81c0,0,3.71,45.54-60.18,45.54c0,0-8-31.12,0-45.54h60.18Z" fill="#f18221"/><path d="M184.54,275.22h-46.73c-1.53-10.33-2.44-24.82,2.34-33.41h60.18c.338,13.012-5.522,25.411-15.79,33.41Z" fill="#d25927"/><path d="M203.64,165.44c0,0,3.71-45.55-60.18-45.55c0,0-8,31.12,0,45.55h60.18Z" fill="#f18221"/><path d="M199.28,145.85c3.062,6.065,4.561,12.799,4.36,19.59h-60.18c-2.86-5.14-3.68-12.38-3.56-19.59h59.38Z" fill="#d25927"/><path d="M235.84,207.49c0,0,8.29-11.86,14.67-5.49c4.38,4.39.07,9.6-3,12.43c3.07,2.88,7.33,8.17,2.94,12.56-6.37,6.37-14.51-5.64-14.51-5.64l6.91-6.91-7.01-6.95Z" fill="#f18221"/><rect width="140.7" height="118.85" rx="32.86" ry="32.86" transform="translate(101.93 152.4)" fill="url(#easGQk1hjvJ80-fill)"/><rect width="128.2" height="94.38" rx="29.94" ry="29.94" transform="translate(108.18 157.68)" fill="#f18221"/><circle r="31.15" transform="translate(191.67 201.61)" fill="#d25927"/><circle r="31.15" transform="translate(191.67 210.26)" fill="#fff"/><path d="M180.06,209.84c0,15.088,16.333,24.518,29.4,16.974s13.067-26.404,0-33.948c-2.98-1.72-6.359-2.626-9.8-2.626-.951-.001-1.9.069-2.84.21c1.218,1.838,1.865,3.995,1.86,6.2.031,8.691-9.357,14.157-16.9,9.839-.438-.251-.859-.532-1.26-.839-.305,1.376-.459,2.781-.46,4.19ZM203.39,218c0-3.587,3.883-5.829,6.99-4.036c3.107,1.794,3.107,6.278,0,8.072-.708.409-1.512.624-2.33.624-2.574,0-4.66-2.086-4.66-4.66Z" fill="#414042"/></g></g><g id="fish_7" style="animation: fish7 7.50s linear 0s infinite normal;" transform="translate(141.303414,208.341128)"><g transform="scale(0.219722,0.219722) translate(-172.279995,-228.774324)"><path d="M47.63,236.33c30.22,18.16,46.23,6.63,54.3-6v8c0,18.15,14.71,32.864,32.86,32.87h2.49c.627,5.42,1.585,10.797,2.87,16.1c25.63,0,40.37-7.33,48.85-16.1h20.77c18.15-.006,32.86-14.72,32.86-32.87v-10.53c2.46,1.35,5.25,1.71,7.77-.81c4.39-4.39.13-9.68-2.94-12.56c3.12-2.83,7.43-8.05,3-12.43-2.54-2.53-5.38-2.18-7.88-.84v-15.9c0-18.148-14.712-32.86-32.86-32.86h-7.89c-.08-.27-.17-.54-.25-.81-.031-.078-.058-.159-.08-.24-.18-.53-.37-1.07-.57-1.61l-.1-.25c-.21-.55-.43-1.11-.68-1.67c0-.06,0-.13-.08-.19-5.63-12.77-20-27.74-56.66-27.74-2.073,8.522-3.266,17.234-3.56,26c0,1.76,0,3.52.1,5.25c0,.09,0,.17,0,.26c0,.35.05.7.07,1h-5.29c-18.148,0-32.86,14.712-32.86,32.86v2.22c-8.07-12.62-24.08-24.16-54.3-6c0,0,3.51,17.85,16.14,27.42-12.57,9.57-16.08,27.43-16.08,27.43Zm195-21.72v-.33l.17.16-.17.17Z" fill="none" stroke="#8e281d" stroke-width="12" stroke-miterlimit="10"/><path d="M63.77,208.91c-12.63-9.57-16.14-27.42-16.14-27.42c51.46-30.94,61.73,24.27,61.73,24.27-2,1.18-4,2.22-5.84,3.15c1.89.93,3.83,2,5.84,3.14c0,0-10.27,55.22-61.73,24.28c0,0,3.51-17.86,16.14-27.42Z" fill="#f18221"/><path d="M200.33,241.81c0,0,3.71,45.54-60.18,45.54c0,0-8-31.12,0-45.54h60.18Z" fill="#f18221"/><path d="M184.54,275.22h-46.73c-1.53-10.33-2.44-24.82,2.34-33.41h60.18c.338,13.012-5.522,25.411-15.79,33.41Z" fill="#d25927"/><path d="M203.64,165.44c0,0,3.71-45.55-60.18-45.55c0,0-8,31.12,0,45.55h60.18Z" fill="#f18221"/><path d="M199.28,145.85c3.062,6.065,4.561,12.799,4.36,19.59h-60.18c-2.86-5.14-3.68-12.38-3.56-19.59h59.38Z" fill="#d25927"/><path d="M235.84,207.49c0,0,8.29-11.86,14.67-5.49c4.38,4.39.07,9.6-3,12.43c3.07,2.88,7.33,8.17,2.94,12.56-6.37,6.37-14.51-5.64-14.51-5.64l6.91-6.91-7.01-6.95Z" fill="#f18221"/><rect width="140.7" height="118.85" rx="32.86" ry="32.86" transform="translate(101.93 152.4)" fill="url(#easGQk1hjvJ93-fill)"/><rect width="128.2" height="94.38" rx="29.94" ry="29.94" transform="translate(108.18 157.68)" fill="#f18221"/><circle r="31.15" transform="translate(191.67 201.61)" fill="#d25927"/><circle r="31.15" transform="translate(191.67 210.26)" fill="#fff"/><path d="M180.06,209.84c0,15.088,16.333,24.518,29.4,16.974s13.067-26.404,0-33.948c-2.98-1.72-6.359-2.626-9.8-2.626-.951-.001-1.9.069-2.84.21c1.218,1.838,1.865,3.995,1.86,6.2.031,8.691-9.357,14.157-16.9,9.839-.438-.251-.859-.532-1.26-.839-.305,1.376-.459,2.781-.46,4.19ZM203.39,218c0-3.587,3.883-5.829,6.99-4.036c3.107,1.794,3.107,6.278,0,8.072-.708.409-1.512.624-2.33.624-2.574,0-4.66-2.086-4.66-4.66Z" fill="#414042"/></g></g></svg>
